<!DOCTYPE svg PUBLIC "-//W3C//DTD SVG 1.1//EN" "http://www.w3.org/Graphics/SVG/1.1/DTD/svg11.dtd">
<!-- Uploaded to: SVG Repo, www.svgrepo.com, Transformed by: SVG Repo Mixer Tools -->
<svg fill="#000000" height="800px" width="800px" version="1.1" id="Layer_1" xmlns="http://www.w3.org/2000/svg" xmlns:xlink="http://www.w3.org/1999/xlink" viewBox="0 0 512 512" xml:space="preserve">
<g id="SVGRepo_bgCarrier" stroke-width="0"/>
<g id="SVGRepo_tracerCarrier" stroke-linecap="round" stroke-linejoin="round"/>
<g id="SVGRepo_iconCarrier"> <g> <g> <path d="M123.733,298.667c-21.171,0-38.4,17.229-38.4,38.4s17.229,38.4,38.4,38.4s38.4-17.229,38.4-38.4 S144.905,298.667,123.733,298.667z M123.733,358.4c-11.767,0-21.333-9.566-21.333-21.333s9.566-21.333,21.333-21.333 s21.333,9.566,21.333,21.333S135.501,358.4,123.733,358.4z"/> </g> </g> <g> <g> <path d="M503.467,324.267c0-187.733-38.536-187.733-51.2-187.733h-256c-61.15,0-122.47,15.795-142.549,36.617 c-0.009,0.009-0.017,0.017-0.026,0.034C22.46,204.416,8.533,251.008,8.533,324.267C3.814,324.267,0,328.081,0,332.8 s3.814,8.533,8.533,8.533H51.2c2.756,0,5.342-1.331,6.938-3.575L98.261,281.6h50.953l40.115,56.158 c1.596,2.244,4.181,3.575,6.938,3.575H332.8c3.234,0,6.187-1.826,7.637-4.719l6.17-12.348h14.225 c-1.468,4.113-2.432,8.371-2.432,12.8c0,21.171,17.229,38.4,38.4,38.4c21.171,0,38.4-17.229,38.4-38.4 c0-4.446-0.964-8.695-2.432-12.8h14.225l6.178,12.348c1.442,2.893,4.395,4.719,7.629,4.719h42.667 c4.719,0,8.533-3.814,8.533-8.533S508.186,324.267,503.467,324.267z M474.163,187.733c2.978,11.119,5.606,25.148,7.654,42.667 H451.14l-6.093-42.667H474.163z M196.267,153.6h256c5.35,0,10.991,5.325,16.12,17.067H91.034 C117.444,160.546,157.645,153.6,196.267,153.6z M433.886,230.4H315.733v-42.667h112.06L433.886,230.4z M298.667,187.733V230.4 H187.733v-42.667H298.667z M100.309,187.733h70.357V230.4H88.115L100.309,187.733z M63.437,187.733h19.106L70.349,230.4H38.221 C44.279,213.265,52.634,199.279,63.437,187.733z M396.8,358.4c-11.768,0-21.333-9.566-21.333-21.333 c0-3.2,0.691-6.272,2.048-9.139l1.741-3.661h35.089l1.749,3.686c1.357,2.842,2.039,5.914,2.039,9.114 C418.133,348.834,408.568,358.4,396.8,358.4z M466.074,324.267l-6.178-12.348c-1.442-2.893-4.395-4.719-7.629-4.719H341.333 c-3.234,0-6.187,1.826-7.637,4.719l-6.17,12.348H200.661l-40.115-56.158c-1.604-2.244-4.19-3.576-6.946-3.576H93.867 c-2.756,0-5.342,1.331-6.938,3.576l-40.124,56.158H25.6c0-5.897,0.128-11.537,0.316-17.067h8.218c4.719,0,8.533-3.814,8.533-8.533 s-3.814-8.533-8.533-8.533H26.82c1.203-15.889,3.319-30.114,6.426-42.846c0.299,0.034,0.572,0.179,0.888,0.179h449.374 c1.084,12.689,1.86,26.94,2.347,42.667h-7.987c-4.719,0-8.533,3.814-8.533,8.533s3.814,8.533,8.533,8.533h8.371 c0.085,5.572,0.162,11.145,0.162,17.067H466.074z"/> </g> </g> </g>
</svg>